<mxfile host="app.diagrams.net" agent="Mozilla/5.0 (X11; Ubuntu; Linux x86_64; rv:134.0) Gecko/20100101 Firefox/134.0" version="26.0.10">
  <diagram name="Page-1" id="tBoLCXt5iyJC8tyhb2re">
    <mxGraphModel dx="1984" dy="736" grid="1" gridSize="10" guides="1" tooltips="1" connect="1" arrows="1" fold="1" page="1" pageScale="1" pageWidth="850" pageHeight="1100" math="0" shadow="0">
      <root>
        <mxCell id="0" />
        <mxCell id="1" parent="0" />
        <mxCell id="K_u9_G9mWH7yhnEzMAru-1" value="" style="whiteSpace=wrap;html=1;" parent="1" vertex="1">
          <mxGeometry x="240" y="160" width="160" height="200" as="geometry" />
        </mxCell>
        <mxCell id="K_u9_G9mWH7yhnEzMAru-2" value="MAKE_SEQUENCE" style="text;html=1;align=left;verticalAlign=middle;whiteSpace=wrap;rounded=0;fontFamily=Lucida Console;" parent="1" vertex="1">
          <mxGeometry x="240" y="140" width="160" height="20" as="geometry" />
        </mxCell>
        <mxCell id="YvkyrZSKyMlUaRxWx_hk-8" value="" style="endArrow=none;html=1;rounded=0;fontFamily=Lucida Console;fontSize=12;fontColor=default;exitX=1;exitY=0.4;exitDx=0;exitDy=0;exitPerimeter=0;strokeWidth=3;" edge="1" parent="1">
          <mxGeometry width="50" height="50" relative="1" as="geometry">
            <mxPoint x="400" y="258.99" as="sourcePoint" />
            <mxPoint x="520" y="259" as="targetPoint" />
          </mxGeometry>
        </mxCell>
        <mxCell id="YvkyrZSKyMlUaRxWx_hk-11" value="seed" style="text;html=1;align=center;verticalAlign=bottom;whiteSpace=wrap;rounded=0;fontFamily=Lucida Console;fontStyle=0" vertex="1" parent="1">
          <mxGeometry x="404" y="226.62" width="110" height="20" as="geometry" />
        </mxCell>
        <mxCell id="YvkyrZSKyMlUaRxWx_hk-12" value="20" style="text;html=1;align=center;verticalAlign=bottom;whiteSpace=wrap;rounded=0;fontFamily=Lucida Console;fontStyle=0" vertex="1" parent="1">
          <mxGeometry x="424" y="273.37" width="61" height="20" as="geometry" />
        </mxCell>
        <mxCell id="YvkyrZSKyMlUaRxWx_hk-13" value="" style="endArrow=none;html=1;rounded=0;strokeWidth=1;fontStyle=0;align=center;" edge="1" parent="1">
          <mxGeometry width="50" height="50" relative="1" as="geometry">
            <mxPoint x="450" y="269.62" as="sourcePoint" />
            <mxPoint x="459" y="247.62" as="targetPoint" />
          </mxGeometry>
        </mxCell>
        <mxCell id="YvkyrZSKyMlUaRxWx_hk-14" value="" style="endArrow=none;html=1;rounded=0;fontFamily=Lucida Console;fontSize=12;fontColor=default;exitX=0;exitY=1;exitDx=0;exitDy=0;align=right;strokeWidth=3;" edge="1" parent="1" source="YvkyrZSKyMlUaRxWx_hk-15">
          <mxGeometry width="50" height="50" relative="1" as="geometry">
            <mxPoint x="80" y="260" as="sourcePoint" />
            <mxPoint x="240" y="260" as="targetPoint" />
          </mxGeometry>
        </mxCell>
        <mxCell id="YvkyrZSKyMlUaRxWx_hk-15" value="counter" style="text;html=1;align=center;verticalAlign=middle;whiteSpace=wrap;rounded=0;fontFamily=Lucida Console;spacingLeft=12;spacingRight=12;" vertex="1" parent="1">
          <mxGeometry x="120" y="240" width="120" height="20" as="geometry" />
        </mxCell>
        <mxCell id="YvkyrZSKyMlUaRxWx_hk-18" value="" style="whiteSpace=wrap;html=1;" vertex="1" parent="1">
          <mxGeometry x="-40" y="160" width="160" height="200" as="geometry" />
        </mxCell>
        <mxCell id="YvkyrZSKyMlUaRxWx_hk-19" value="MAKE_SEED" style="text;html=1;align=left;verticalAlign=middle;whiteSpace=wrap;rounded=0;fontFamily=Lucida Console;" vertex="1" parent="1">
          <mxGeometry x="-40" y="140" width="160" height="20" as="geometry" />
        </mxCell>
        <mxCell id="YvkyrZSKyMlUaRxWx_hk-20" value="" style="endArrow=none;html=1;rounded=0;fontStyle=0" edge="1" parent="1">
          <mxGeometry width="50" height="50" relative="1" as="geometry">
            <mxPoint x="-140" y="320" as="sourcePoint" />
            <mxPoint x="-40" y="320" as="targetPoint" />
            <Array as="points">
              <mxPoint x="-130" y="320" />
            </Array>
          </mxGeometry>
        </mxCell>
        <mxCell id="YvkyrZSKyMlUaRxWx_hk-21" value="reset" style="text;html=1;align=right;verticalAlign=bottom;whiteSpace=wrap;rounded=0;fontFamily=Lucida Console;fontStyle=0" vertex="1" parent="1">
          <mxGeometry x="-120" y="300" width="70" height="20" as="geometry" />
        </mxCell>
        <mxCell id="YvkyrZSKyMlUaRxWx_hk-22" value="" style="endArrow=none;html=1;rounded=0;fontStyle=0" edge="1" parent="1">
          <mxGeometry width="50" height="50" relative="1" as="geometry">
            <mxPoint x="-140" y="340" as="sourcePoint" />
            <mxPoint x="-40" y="340" as="targetPoint" />
            <Array as="points">
              <mxPoint x="-130" y="340" />
            </Array>
          </mxGeometry>
        </mxCell>
        <mxCell id="YvkyrZSKyMlUaRxWx_hk-23" value="clock" style="text;html=1;align=right;verticalAlign=bottom;whiteSpace=wrap;rounded=0;fontFamily=Lucida Console;fontStyle=0" vertex="1" parent="1">
          <mxGeometry x="-120" y="320" width="70" height="20" as="geometry" />
        </mxCell>
        <mxCell id="YvkyrZSKyMlUaRxWx_hk-24" value="" style="whiteSpace=wrap;html=1;" vertex="1" parent="1">
          <mxGeometry x="520" y="160" width="160" height="200" as="geometry" />
        </mxCell>
        <mxCell id="YvkyrZSKyMlUaRxWx_hk-25" value="SELECT_TERM" style="text;html=1;align=left;verticalAlign=middle;whiteSpace=wrap;rounded=0;fontFamily=Lucida Console;" vertex="1" parent="1">
          <mxGeometry x="520" y="140" width="160" height="20" as="geometry" />
        </mxCell>
        <mxCell id="YvkyrZSKyMlUaRxWx_hk-30" value="" style="endArrow=none;html=1;rounded=0;fontFamily=Lucida Console;fontSize=12;fontColor=default;exitX=0;exitY=1;exitDx=0;exitDy=0;entryX=1;entryY=1;entryDx=0;entryDy=0;strokeWidth=3;" edge="1" parent="1">
          <mxGeometry width="50" height="50" relative="1" as="geometry">
            <mxPoint x="680" y="221.88" as="sourcePoint" />
            <mxPoint x="800" y="221.88" as="targetPoint" />
          </mxGeometry>
        </mxCell>
        <mxCell id="YvkyrZSKyMlUaRxWx_hk-33" value="4" style="text;html=1;align=center;verticalAlign=bottom;whiteSpace=wrap;rounded=0;fontFamily=Lucida Console;fontStyle=0" vertex="1" parent="1">
          <mxGeometry x="706" y="235.75" width="61" height="20" as="geometry" />
        </mxCell>
        <mxCell id="YvkyrZSKyMlUaRxWx_hk-34" value="" style="endArrow=none;html=1;rounded=0;strokeWidth=1;fontStyle=0;align=center;" edge="1" parent="1">
          <mxGeometry width="50" height="50" relative="1" as="geometry">
            <mxPoint x="732" y="232" as="sourcePoint" />
            <mxPoint x="741" y="210" as="targetPoint" />
          </mxGeometry>
        </mxCell>
        <mxCell id="YvkyrZSKyMlUaRxWx_hk-35" value="randomTerm" style="html=1;shadow=0;dashed=0;align=center;verticalAlign=middle;shape=mxgraph.arrows2.arrow;dy=0;dx=10;notch=0;fontFamily=Lucida Console;spacingRight=8;" vertex="1" parent="1">
          <mxGeometry x="800" y="210.38000000000005" width="100" height="24" as="geometry" />
        </mxCell>
        <mxCell id="YvkyrZSKyMlUaRxWx_hk-37" style="edgeStyle=orthogonalEdgeStyle;rounded=0;orthogonalLoop=1;jettySize=auto;html=1;exitX=1;exitY=0.5;exitDx=0;exitDy=0;exitPerimeter=0;endArrow=none;startFill=0;entryX=0;entryY=0.216;entryDx=0;entryDy=0;entryPerimeter=0;" edge="1" parent="1" source="YvkyrZSKyMlUaRxWx_hk-36" target="YvkyrZSKyMlUaRxWx_hk-24">
          <mxGeometry relative="1" as="geometry">
            <mxPoint x="520" y="220" as="targetPoint" />
            <Array as="points">
              <mxPoint x="440" y="112" />
              <mxPoint x="440" y="203" />
            </Array>
          </mxGeometry>
        </mxCell>
        <mxCell id="YvkyrZSKyMlUaRxWx_hk-36" value="nextEn" style="html=1;shadow=0;dashed=0;align=center;verticalAlign=middle;shape=mxgraph.arrows2.arrow;dy=0;dx=10;notch=0;fontFamily=Lucida Console;spacingRight=8;" vertex="1" parent="1">
          <mxGeometry x="300" y="100.00000000000006" width="100" height="24" as="geometry" />
        </mxCell>
        <mxCell id="YvkyrZSKyMlUaRxWx_hk-38" value="" style="endArrow=none;html=1;rounded=0;fontStyle=0" edge="1" parent="1">
          <mxGeometry width="50" height="50" relative="1" as="geometry">
            <mxPoint x="420" y="320" as="sourcePoint" />
            <mxPoint x="520" y="320" as="targetPoint" />
            <Array as="points">
              <mxPoint x="430" y="320" />
            </Array>
          </mxGeometry>
        </mxCell>
        <mxCell id="YvkyrZSKyMlUaRxWx_hk-39" value="reset" style="text;html=1;align=right;verticalAlign=bottom;whiteSpace=wrap;rounded=0;fontFamily=Lucida Console;fontStyle=0" vertex="1" parent="1">
          <mxGeometry x="440" y="300" width="70" height="20" as="geometry" />
        </mxCell>
        <mxCell id="YvkyrZSKyMlUaRxWx_hk-40" value="" style="endArrow=none;html=1;rounded=0;fontStyle=0" edge="1" parent="1">
          <mxGeometry width="50" height="50" relative="1" as="geometry">
            <mxPoint x="420" y="340" as="sourcePoint" />
            <mxPoint x="520" y="340" as="targetPoint" />
            <Array as="points">
              <mxPoint x="430" y="340" />
            </Array>
          </mxGeometry>
        </mxCell>
        <mxCell id="YvkyrZSKyMlUaRxWx_hk-41" value="clock" style="text;html=1;align=right;verticalAlign=bottom;whiteSpace=wrap;rounded=0;fontFamily=Lucida Console;fontStyle=0" vertex="1" parent="1">
          <mxGeometry x="440" y="320" width="70" height="20" as="geometry" />
        </mxCell>
        <mxCell id="YvkyrZSKyMlUaRxWx_hk-42" value="" style="endArrow=none;html=1;rounded=0;fontFamily=Lucida Console;fontSize=12;fontColor=default;edgeStyle=elbowEdgeStyle;elbow=vertical;exitX=1;exitY=1;exitDx=0;exitDy=0;" edge="1" source="YvkyrZSKyMlUaRxWx_hk-49" parent="1">
          <mxGeometry width="50" height="50" relative="1" as="geometry">
            <mxPoint x="850" y="293" as="sourcePoint" />
            <mxPoint x="-160" y="240" as="targetPoint" />
            <Array as="points">
              <mxPoint x="310" y="400" />
              <mxPoint x="-40" y="380" />
            </Array>
          </mxGeometry>
        </mxCell>
        <mxCell id="YvkyrZSKyMlUaRxWx_hk-45" value="" style="endArrow=none;html=1;rounded=0;fontFamily=Lucida Console;fontSize=12;fontColor=default;exitX=0;exitY=1;exitDx=0;exitDy=0;entryX=1;entryY=1;entryDx=0;entryDy=0;" edge="1" source="YvkyrZSKyMlUaRxWx_hk-46" target="YvkyrZSKyMlUaRxWx_hk-46" parent="1">
          <mxGeometry width="50" height="50" relative="1" as="geometry">
            <mxPoint x="-199.99999999999994" y="240.43" as="sourcePoint" />
            <mxPoint x="-39.99999999999994" y="240.43" as="targetPoint" />
          </mxGeometry>
        </mxCell>
        <mxCell id="YvkyrZSKyMlUaRxWx_hk-46" value="holdMode" style="text;html=1;align=right;verticalAlign=middle;whiteSpace=wrap;rounded=0;fontFamily=Lucida Console;spacingLeft=12;spacingRight=12;" vertex="1" parent="1">
          <mxGeometry x="-160" y="219.43" width="120" height="20" as="geometry" />
        </mxCell>
        <mxCell id="YvkyrZSKyMlUaRxWx_hk-48" value="" style="endArrow=none;html=1;rounded=0;fontFamily=Lucida Console;fontSize=12;fontColor=default;exitX=0;exitY=1;exitDx=0;exitDy=0;entryX=1;entryY=1;entryDx=0;entryDy=0;" edge="1" parent="1" source="YvkyrZSKyMlUaRxWx_hk-49" target="YvkyrZSKyMlUaRxWx_hk-49">
          <mxGeometry width="50" height="50" relative="1" as="geometry">
            <mxPoint x="640" y="293.19" as="sourcePoint" />
            <mxPoint x="800" y="293.19" as="targetPoint" />
          </mxGeometry>
        </mxCell>
        <mxCell id="YvkyrZSKyMlUaRxWx_hk-49" value="holdMode" style="text;html=1;align=left;verticalAlign=middle;whiteSpace=wrap;rounded=0;fontFamily=Lucida Console;spacingLeft=12;spacingRight=12;" vertex="1" parent="1">
          <mxGeometry x="680" y="272.19" width="120" height="20" as="geometry" />
        </mxCell>
      </root>
    </mxGraphModel>
  </diagram>
</mxfile>
